<?xml version="1.0" encoding="utf-8"?>
<!-- Svg Vector Icons : http://www.onlinewebfonts.com/icon -->
<!DOCTYPE svg PUBLIC "-//W3C//DTD SVG 1.1//EN" "http://www.w3.org/Graphics/SVG/1.1/DTD/svg11.dtd">
<svg version="1.1" xmlns="http://www.w3.org/2000/svg" xmlns:xlink="http://www.w3.org/1999/xlink" x="0px" y="0px" viewBox="0 0 1000 1000" enable-background="new 0 0 1000 1000" xml:space="preserve">
<metadata> Svg Vector Icons : http://www.onlinewebfonts.com/icon </metadata>
<g><g transform="translate(0.000000,512.000000) scale(0.100000,-0.100000)"><path d="M4579.3,5003.3c-911.9-78.5-1791.3-415.7-2542.3-977.1c-241.4-180.1-762.5-701.2-942.6-942.6C-39.7,1564.4-217.9-433.8,632.7-2102.5c463.6-906.2,1201.2-1653.3,2094-2117c808.5-421.5,1712.7-613.1,2590.2-549.8c1251,92,2339.2,595.8,3199.4,1480.9c684,705,1124.6,1557.6,1302.8,2521.2c260.5,1412-115,2875.6-1023,3984.9c-208.8,254.8-586.2,620.7-827.6,804.6C6991.3,4758,5784.3,5106.7,4579.3,5003.3z M5452.9,4696.7c2009.7-199.2,3666.9-1705.1,4057.7-3684.1c421.5-2126.5-699.3-4253.1-2697.5-5117.1c-1889-818.1-4105.6-262.5-5396.8,1350.6C717-1882.2,372.2-841.9,408.6,273.1C431.6,959,573.3,1526.1,872.2,2141c220.3,452.1,515.4,864,879.4,1228c651.4,651.4,1454.1,1080.5,2356.4,1262.5c126.4,24.9,310.4,53.6,404.2,63.2C4761.3,4719.7,5209.6,4721.6,5452.9,4696.7z"/><path d="M4901.2,2675.5l-5.7-356.3l-141.8-36.4c-477-120.7-800.8-436.8-892.8-871.7c-80.5-381.2,9.6-683.9,285.5-956c189.7-187.7,367.8-295,775.9-471.3c375.5-162.9,515.3-241.4,657.1-377.4c137.9-130.3,205-268.2,220.3-442.5c40.2-490.5-402.3-818.1-1015.4-749.1c-247.1,28.7-440.6,84.3-659,191.6c-103.4,51.7-189.7,90-189.7,90c-9.6-11.5-160.9-440.6-160.9-456c0-32.6,362.1-191.6,547.9-237.6c103.5-26.8,264.4-53.6,356.3-61.3l168.6-11.5v-360.2v-362.1h220.3h220.3l3.8,367.8l5.7,365.9l159,42.1c251,67.1,429.2,166.7,609.2,344.8c120.7,118.8,170.5,185.8,226.1,300.8c218.4,457.9,139.9,998.1-195.4,1343c-174.4,178.2-408.1,316.1-938.8,547.9c-364,159-551.8,291.2-649.5,457.9c-42.1,69-53.6,116.9-59.4,247.1c-7.7,149.4-3.8,168.6,51.7,283.5c105.4,210.7,281.6,321.9,570.9,354.4c270.1,28.7,582.4-26.8,862.1-153.3l155.2-72.8l86.2,224.1l86.2,222.2l-40.2,32.6c-107.3,84.3-477,193.5-735.7,218.4l-139.9,13.4v341v342.9h-220.3H4905L4901.2,2675.5z"/></g></g>
</svg>